# xmcd CD database file
#
# Track frame offsets:
#	150
#	28030
#	51407
#	77580
#	97282
#	116032
#	142787
#	167077
#	193237
#	216742
#
# Disc length: 3176 seconds
#
# Revision: 2
# Processed by: cddbd v1.5PL3 Copyright (c) Steve Scherf et al.
# Submitted via: CDex 1.51
#
DISCID=970c660a
DTITLE=加古隆 - 静かな時間
DYEAR=1999
DGENRE=New Age
TTITLE0=白梅抄−亡き母の
TTITLE1=アダイ・アダイ−川のほとりの村〜ブルネイの古謡による〜
TTITLE2=光りと影のバラード
TTITLE3=美しき日々
TTITLE4=雨のソネット
TTITLE5=それぞれの海
TTITLE6=悲しみ
TTITLE7=永訣の朝−宮沢賢治の詩に
TTITLE8=Ayako
TTITLE9=デュオ・ソリテール−ひとりぼっちの二重奏
EXTD=YEAR: 1999
EXTT0=
EXTT1=
EXTT2=
EXTT3=
EXTT4=
EXTT5=
EXTT6=
EXTT7=
EXTT8=
EXTT9=
PLAYORDER=
